# xmcd
#
# Track frame offsets:
#       150
#       21517
#       56595
#       70670
#       88655
#       102137
#       120530
#       145050
#       159465
#
# Disc length: 2535 seconds
#
# Revision: 0
# Processed by: cddbd v1.4PL0 Copyright (c) Steve Scherf et al.
# Submitted via: CD-DA_X-Tractor v0.21
#
DISCID=7209e509
DTITLE=Al Copley and The Fabulous Thund - Good Understanding
DYEAR=1900
DGENRE=
TTITLE0=Doin' It
TTITLE1=Sunshine Moonlight
TTITLE2=Another Woman
TTITLE3=Bad Bad Whiskey
TTITLE4=Run Riot (Rog's Romp)
TTITLE5=What Do I Do ?
TTITLE6=Am Man And The Blues
TTITLE7=Love Will Heal Me Too
TTITLE8=Good Understanding
EXTD=
EXTT0=
EXTT1=
EXTT2=
EXTT3=
EXTT4=
EXTT5=
EXTT6=
EXTT7=
EXTT8=
PLAYORDER=
